<svg width="263" height="257" viewBox="0 0 263 257" fill="none" xmlns="http://www.w3.org/2000/svg">
<path fill-rule="evenodd" clip-rule="evenodd" d="M37.96 37.0937C21.917 52.7921 21.917 78.0209 21.917 128.5C21.917 178.979 21.917 204.219 37.96 219.896C54.0249 235.583 79.8427 235.583 131.5 235.583C183.158 235.583 208.987 235.583 225.03 219.896C241.084 204.229 241.084 178.979 241.084 128.5C241.084 78.0209 241.084 52.7814 225.03 37.0937C208.998 21.4167 183.158 21.4167 131.5 21.4167C79.8427 21.4167 54.014 21.4167 37.96 37.0937ZM115.545 80.4946C116.289 79.7303 116.872 78.8303 117.26 77.8459C117.648 76.8616 117.834 75.8122 117.807 74.7577C117.78 73.7032 117.54 72.6642 117.103 71.7C116.665 70.7358 116.037 69.8654 115.255 69.1384C114.472 68.4114 113.551 67.842 112.544 67.4628C111.537 67.0836 110.463 66.902 109.384 66.9283C108.305 66.9547 107.241 67.1885 106.255 67.6164C105.268 68.0443 104.377 68.6579 103.633 69.4221L78.2757 95.4434L71.7007 88.6972C70.9648 87.9024 70.0735 87.2596 69.0793 86.8067C68.0852 86.3538 67.0084 86.1 65.9123 86.0601C64.8162 86.0202 63.723 86.1952 62.6972 86.5746C61.6714 86.954 60.7337 87.5302 59.9393 88.2693C59.1449 89.0084 58.51 89.8954 58.0719 90.878C57.6338 91.8606 57.4014 92.919 57.3884 93.9907C57.3754 95.0625 57.5821 96.1259 57.9963 97.1184C58.4104 98.1109 59.0237 99.0123 59.7999 99.7696L72.3253 112.62C73.0929 113.407 74.0161 114.034 75.0389 114.462C76.0618 114.89 77.1629 115.111 78.2757 115.111C79.3885 115.111 80.4896 114.89 81.5125 114.462C82.5353 114.034 83.4585 113.407 84.2261 112.62L115.545 80.4946ZM142.459 88.3438C140.279 88.3438 138.188 89.1899 136.647 90.6961C135.106 92.2022 134.24 94.245 134.24 96.375C134.24 98.505 135.106 100.548 136.647 102.054C138.188 103.56 140.279 104.406 142.459 104.406H197.25C199.43 104.406 201.521 103.56 203.062 102.054C204.603 100.548 205.469 98.505 205.469 96.375C205.469 94.245 204.603 92.2022 203.062 90.6961C201.521 89.1899 199.43 88.3438 197.25 88.3438H142.459ZM115.534 155.453C116.31 154.696 116.924 153.794 117.338 152.802C117.752 151.809 117.959 150.746 117.946 149.674C117.933 148.602 117.7 147.544 117.262 146.561C116.824 145.579 116.189 144.692 115.395 143.953C114.6 143.214 113.663 142.637 112.637 142.258C111.611 141.879 110.518 141.704 109.422 141.743C108.326 141.783 107.249 142.037 106.255 142.49C105.261 142.943 104.369 143.586 103.633 144.38L78.2757 170.402L71.7007 163.655C70.9648 162.861 70.0735 162.218 69.0793 161.765C68.0852 161.312 67.0084 161.058 65.9123 161.018C64.8162 160.979 63.723 161.154 62.6972 161.533C61.6714 161.912 60.7337 162.489 59.9393 163.228C59.1449 163.967 58.51 164.854 58.0719 165.836C57.6338 166.819 57.4014 167.877 57.3884 168.949C57.3754 170.021 57.5821 171.084 57.9963 172.077C58.4104 173.069 59.0237 173.971 59.7999 174.728L72.3253 187.578C73.0929 188.365 74.0161 188.992 75.0389 189.42C76.0618 189.848 77.1629 190.069 78.2757 190.069C79.3885 190.069 80.4896 189.848 81.5125 189.42C82.5353 188.992 83.4585 188.365 84.2261 187.578L115.534 155.453ZM142.459 163.302C140.279 163.302 138.188 164.148 136.647 165.654C135.106 167.161 134.24 169.203 134.24 171.333C134.24 173.463 135.106 175.506 136.647 177.012C138.188 178.518 140.279 179.365 142.459 179.365H197.25C199.43 179.365 201.521 178.518 203.062 177.012C204.603 175.506 205.469 173.463 205.469 171.333C205.469 169.203 204.603 167.161 203.062 165.654C201.521 164.148 199.43 163.302 197.25 163.302H142.459Z" fill="#606C38"/>
</svg>
