<svg width="32" height="32" viewBox="0 0 32 32" fill="none" xmlns="http://www.w3.org/2000/svg">
<path d="M1.3335 27.9998L16.0002 2.6665L30.6668 27.9998H1.3335ZM16.0002 23.9998C16.3779 23.9998 16.6948 23.8718 16.9508 23.6158C17.2068 23.3598 17.3344 23.0434 17.3335 22.6665C17.3335 22.2887 17.2055 21.9718 16.9495 21.7158C16.6935 21.4598 16.3771 21.3323 16.0002 21.3332C15.6224 21.3332 15.3055 21.4612 15.0495 21.7172C14.7935 21.9732 14.6659 22.2896 14.6668 22.6665C14.6668 23.0443 14.7948 23.3612 15.0508 23.6172C15.3068 23.8732 15.6233 24.0007 16.0002 23.9998ZM14.6668 19.9998H17.3335V13.3332H14.6668V19.9998Z" fill="#BA0000"/>
</svg>
